<svg class="variation-svg fade-enter-done" viewBox="27.5 27.5 520 520" xmlns="http://www.w3.org/2000/svg" xmlns:xlink="http://www.w3.org/1999/xlink" style="transform: scale(1);"><g><svg data-layer-type="shape" xmlns="http://www.w3.org/2000/svg" preserveAspectRatio="none" x="97.5" y="97.5" height="380" width="380" style="fill: rgb(74, 115, 232); position: absolute; fill-opacity: 1; stroke: rgb(64, 65, 69);"><rect rx="50%" ry="50%" y="0" x="0" height="380" width="380" style="stroke-width: 0; stroke: rgb(0, 0, 0); right: 1px;"></rect></svg></g><image height="148.40437030075188" width="268" y="181.89799877929687" x="153.80319213867188" preserveAspectRatio="xMinYMin" xmlns="http://www.w3.org/2000/svg" viewBox="-0.011476516723632812 0.00592803955078125 1429.2939453125 793.2630004882812" href="https://fiverr-res.cloudinary.com/image/upload/f_png,q_auto,t_makers_project_variation_preview/v1/secured-attachments/makers_project_variation/preview_file/a9418ca6595e8d5f2a929e8069096130-1646359513/622173d88ad076000b56e401.svg?__cld_token__=exp=1646381139~hmac=a1ac896cff6634c69b8145d5b0a6c84d27a484b51629c6bb6932d0389af0390f" xlink:href="https://fiverr-res.cloudinary.com/image/upload/f_png,q_auto,t_makers_project_variation_preview/v1/secured-attachments/makers_project_variation/preview_file/a9418ca6595e8d5f2a929e8069096130-1646359513/622173d88ad076000b56e401.svg?__cld_token__=exp=1646381139~hmac=a1ac896cff6634c69b8145d5b0a6c84d27a484b51629c6bb6932d0389af0390f" style="position: absolute;"></image><g><svg data-layer-type="text" y="430.5299987792969" viewBox="0 0 0 0" x="284.47947692871094" height="0" width="0" style="position: absolute;"><g data-horizontal-grow="center" style="fill: rgb(103, 187, 136); font-size: 20px; font-weight: 500; font-style: normal; font-family: Comfortaa; dominant-baseline: hanging; fill-opacity: 1;"><path d="" transform="translate(0, 0)"></path></g></svg></g><g><svg data-layer-type="text" y="381.5299987792969" viewBox="1.4700000286102295 6.889999866485596 125.79000091552734 34.94000244140625" x="226.4081916809082" height="34.94000244140625" width="125.79000091552734" xmlns="http://www.w3.org/2000/svg" style="position: absolute;"><g data-horizontal-grow="center" style="fill: rgb(236, 252, 255); font-size: 42px; font-weight: 900; font-style: normal; font-family: Merriweather; dominant-baseline: hanging; text-transform: capitalize; fill-opacity: 1;"><path d="M4.70 38.14L4.70 13.65L1.55 13.06L1.55 10.12L15.88 10.12L15.88 13.06L11.89 13.65L11.89 38.05L19.78 37.63L22.51 29.32L26.46 29.82L25.24 41.33L1.47 41.33L1.47 38.56L4.70 38.14ZM47.63 41.75Q46.12 41.75 45.44 41.10Q44.77 40.45 44.77 39.19L44.77 39.19L44.77 38.26Q43.76 39.65 41.75 40.72Q39.73 41.79 37.67 41.79L37.67 41.79Q33.56 41.79 31.82 39.75Q30.07 37.72 30.07 32.93L30.07 32.93L30.07 21.25L28.10 20.71L28.10 18.02L35.99 17.47L36.04 17.47L36.96 18.06L36.96 33.10Q36.96 35.83 37.63 36.90Q38.30 37.97 40.03 37.97L40.03 37.97Q42.38 37.97 43.97 36.37L43.97 36.37L43.97 21.25L41.37 20.62L41.37 18.02L49.69 17.47L49.81 17.47L50.82 18.06L50.82 38.43L53.05 38.43L53.05 41.12Q51.62 41.41 50.42 41.58Q49.22 41.75 47.63 41.75L47.63 41.75ZM76.57 41.79Q74.26 41.79 72.30 41.41Q70.35 41.03 68.21 40.40L68.21 40.40Q66.82 39.98 66.19 39.94L66.19 39.94L66.57 32.09L70.48 32.09L71.53 37.46Q71.99 38.01 73.23 38.43Q74.47 38.85 76.19 38.85L76.19 38.85Q78.75 38.85 80.03 37.72Q81.31 36.58 81.31 34.61L81.31 34.61Q81.31 33.22 80.49 32.19Q79.67 31.16 78.22 30.30Q76.78 29.44 74.26 28.31L74.26 28.31Q70.94 26.80 68.65 24.47Q66.36 22.13 66.36 18.31L66.36 18.31Q66.36 15.96 67.58 14.03Q68.80 12.10 71.27 10.92Q73.75 9.74 77.45 9.74L77.45 9.74Q79.67 9.74 81.33 10.04Q82.99 10.33 84.88 10.84L84.88 10.84Q85.89 11.17 86.44 11.21L86.44 11.21L86.18 18.69L82.36 18.69L81.40 13.52Q81.10 13.15 80.07 12.83Q79.04 12.52 77.78 12.52L77.78 12.52Q75.47 12.52 74.32 13.61Q73.16 14.70 73.16 16.42L73.16 16.42Q73.16 17.93 74.13 19.07Q75.10 20.20 76.46 20.98Q77.83 21.76 80.64 23.14L80.64 23.14Q82.87 24.23 84.53 25.35Q86.18 26.46 87.36 28.22Q88.54 29.99 88.54 32.34L88.54 32.34Q88.54 34.65 87.42 36.79Q86.31 38.93 83.62 40.36Q80.93 41.79 76.57 41.79L76.57 41.79ZM90.68 34.61Q90.68 30.91 94.44 28.94Q98.20 26.96 104.33 26.92L104.33 26.92L104.33 26.08Q104.33 24.57 103.99 23.69Q103.66 22.81 102.77 22.37Q101.89 21.92 100.17 21.92L100.17 21.92Q98.11 21.92 96.50 22.41Q94.88 22.89 93.11 23.69L93.11 23.69L91.69 20.66Q92.36 20.12 93.87 19.34Q95.38 18.56 97.50 18.00Q99.62 17.43 101.93 17.43L101.93 17.43Q105.29 17.43 107.21 18.31Q109.12 19.19 109.94 21.04Q110.75 22.89 110.75 26.08L110.75 26.08L110.75 38.56L112.94 38.56L112.94 41.20Q111.97 41.41 110.25 41.62Q108.53 41.83 107.31 41.83L107.31 41.83Q105.71 41.83 105.19 41.37Q104.66 40.91 104.66 39.52L104.66 39.52L104.66 38.56Q103.61 39.82 101.85 40.80Q100.09 41.79 97.78 41.79L97.78 41.79Q95.80 41.79 94.19 40.93Q92.57 40.07 91.62 38.45Q90.68 36.83 90.68 34.61L90.68 34.61ZM101.05 37.93Q101.81 37.93 102.73 37.48Q103.66 37.04 104.33 36.41L104.33 36.41L104.33 29.74Q101.05 29.74 99.48 30.91Q97.90 32.09 97.90 33.94L97.90 33.94Q97.90 35.83 98.74 36.88Q99.58 37.93 101.05 37.93L101.05 37.93ZM120.33 14.36Q118.69 14.36 117.68 13.40Q116.68 12.43 116.68 10.92L116.68 10.92Q116.68 9.16 117.79 8.02Q118.90 6.89 120.79 6.89L120.79 6.89Q122.68 6.89 123.69 7.85Q124.70 8.82 124.70 10.33L124.70 10.33Q124.70 12.14 123.56 13.25Q122.43 14.36 120.37 14.36L120.37 14.36L120.33 14.36ZM117.77 38.18L117.77 22.39L114.95 21.59L114.95 18.44L123.35 17.43L123.44 17.43L124.74 18.31L124.74 38.18L127.26 38.56L127.26 41.33L115.16 41.33L115.16 38.56L117.77 38.18Z" transform="translate(0, 0)"></path></g></svg></g></svg>
